<?xml version="1.0" standalone="no"?>
<!DOCTYPE svg PUBLIC "-//W3C//DTD SVG 1.1//EN" "http://www.w3.org/Graphics/SVG/1.1/DTD/svg11.dtd">
<svg xmlns="http://www.w3.org/2000/svg" xmlns:xlink="http://www.w3.org/1999/xlink" viewBox="0 0 77.15 43.41" width="77.1500015258789" height="43.40999984741211"><defs><style>.cls-1{fill:url(#linear-gradient);}.cls-2{fill:url(#linear-gradient-2);}.cls-3{fill:url(#linear-gradient-3);}.cls-4{fill:url(#linear-gradient-4);}.cls-5{fill:url(#linear-gradient-5);}.cls-6{fill:url(#linear-gradient-6);}.cls-7{fill:url(#linear-gradient-7);}.cls-8{font-size:10.08px;fill:#bd4525;font-family:Montserrat-Bold, Montserrat;font-weight:700;}.cls-9{letter-spacing:-0.07em;}.cls-10{letter-spacing:-0.01em;}.cls-11{letter-spacing:-0.01em;}.cls-12{letter-spacing:0em;}</style><linearGradient id="linear-gradient" x1="43.6" y1="21.54" x2="43.6" y2="21.32" gradientUnits="userSpaceOnUse"><stop offset="0.06" stop-color="#fbb040"/><stop offset="0.83" stop-color="#c13321"/></linearGradient><linearGradient id="linear-gradient-2" x1="25.45" y1="15.23" x2="25.45" y2="14.48" xlink:href="#linear-gradient"/><linearGradient id="linear-gradient-3" x1="38.43" y1="11.96" x2="38.43" y2="11.69" xlink:href="#linear-gradient"/><linearGradient id="linear-gradient-4" x1="38.82" y1="20.5" x2="38.91" y2="0.61" xlink:href="#linear-gradient"/><linearGradient id="linear-gradient-5" x1="24.09" y1="15.23" x2="24.1" y2="14.55" xlink:href="#linear-gradient"/><linearGradient id="linear-gradient-6" x1="25.39" y1="19.52" x2="25.41" y2="15.52" xlink:href="#linear-gradient"/><linearGradient id="linear-gradient-7" x1="23.97" y1="15.56" x2="23.97" y2="15.49" xlink:href="#linear-gradient"/></defs><g id="Layer_2" data-name="Layer 2"><g id="Layer_1-2" data-name="Layer 1"><rect x="0.31" y="30.76" width="76.54" height="0.46"/><path d="M26.17,15.4c.06-.54.09-.91.09-.91S26.22,14.86,26.17,15.4Z"/><path d="M66.93,30.29c-.07-.16-.16-.33-.25-.51a22.51,22.51,0,0,0-.9-3c-.44-.95-1.07-12.53-1.07-12.53s-.95,11.14-1.89,11.2-1-8-1-8L61.37,24l-1.13-.94-1.07-9.5-1.23,9.62a1.3,1.3,0,0,1-.1-.15l-1-4.5v2.95c-.06-.11-.13-.21-.19-.31a11.82,11.82,0,0,0-1.07-1.63l-.12-.19-.38-7-.94,5.92-.25-4-.44,3.28c.4.4.77.8,1.11,1.18a2.12,2.12,0,0,1-.86-.49c-.56-.59-.31-1.14-.88-1.83-.36-.42-.5-.27-1-.75-.83-.8-.71-1.47-1.13-1.58s-1.22.77-2.27,2.14c-.86,1.13-1,1.61-1.74,1.88,0-.1,0-.2,0-.3L46,13l-.57,5.54h0c-.28.31-.16.71-.11,1.16l-.08.73-.56.31-.57-5.91-.63,6.35-.75-.69-.51-7.8-1.13,6.79s.08.19.19.41l-.13-.09a20.07,20.07,0,0,0-3.33-1.7,21.91,21.91,0,0,1-3.72-2.27,20.11,20.11,0,0,0-3.2,2.08c-.48.37-.82.68-1.12.94A11.81,11.81,0,0,1,27.31,20a4.17,4.17,0,0,1-.52,0c-.85-.32-.74-3.17-.62-4.66-.15,1.39-.5,3.92-1,4.38l0,0-.2-.06c-.49-.67-.39-5.25-.39-5.25l-.63,1.26L23.24,13s-1.13,9.44-1.7,9.44-.75-4.65-.75-4.65l.06,5.09h-.57c-.21,0-.26,0-.25,0-.33-1.94-1.13-8.9-1.13-8.9s-.38,10.89-1.45,11.08-.82-10.32-.82-10.32l-1.57,12L13.68,14.11l-2,15.29-1,.82H14a30.68,30.68,0,0,1,6.57-4.48A12.41,12.41,0,0,0,22.8,24.4,11.83,11.83,0,0,0,25.07,22c.46-.25,1.07-.58,1.8-1a4.53,4.53,0,0,0,3,0,10.39,10.39,0,0,0,2.35-1.76,18.85,18.85,0,0,1,3-1.94,20.13,20.13,0,0,0,3.46,2.11A19.27,19.27,0,0,1,41.73,21a10.39,10.39,0,0,1,2,1.82c1.24-.31,1.66-.79,1.81-1.18a2.33,2.33,0,0,0,0-1.11,4.18,4.18,0,0,0,.64-.92,2.34,2.34,0,0,0,.68-.14c.66-.24.83-.7,1.64-1.76,1-1.27,1.62-2.11,2.11-2s.29.73,1.06,1.47c.47.45.61.3.94.7.53.64.3,1.15.82,1.7.29.31.53.32.94.53.8.41,1.14,1.06,1.81,2.17.44.72,1.1,1.75,2,3.05a2.66,2.66,0,0,1,.43-.72,8.92,8.92,0,0,0,2.12.94A10.39,10.39,0,0,0,62,26.74c1,.82,1.21.73,2,1.47a8.06,8.06,0,0,1,1.59,2.08h1.22c0,.06.06.13.09.18s0-.06,0-.18ZM20.16,23.43c0,.08-.07-.11-.13-.48A.46.46,0,0,1,20.16,23.43Zm23.09-1.7-.19-.22.13,0a2.06,2.06,0,0,0,.78,0A5.6,5.6,0,0,1,43.25,21.73Z"/><path d="M52.32,30.58c-.55.14-1.09.24-1.61.32l3.55-1.45-2.71.12A5.39,5.39,0,0,0,53.66,29,4.84,4.84,0,0,0,55,28c-.69.23-1.41.44-2.15.65q-2.64.72-5,1.12a39.39,39.39,0,0,0,5.1-1.88c.66-.29,1.28-.59,1.87-.89,0,0-.38.19-2-.44-.24-.09-.34-.15-.33-.19a15.7,15.7,0,0,1,3.81.31,5,5,0,0,0-2.37-.81c-1.14-.08-1.77.32-2.14,0s-.43-1,.46-3L51.09,24l1.28-2.75a13.25,13.25,0,0,1-2,2.45,6.55,6.55,0,0,1-1.86,1.42,17.3,17.3,0,0,0,3.19-4.44,11.14,11.14,0,0,0,.65-2l-1.79,1.42c-1.15,1-1.45,1.21-1.48,1.18A7.62,7.62,0,0,0,50.76,19a5.05,5.05,0,0,0,.14-2.8A7.59,7.59,0,0,0,49,17.89a6.2,6.2,0,0,1-1.18,1.42,3.93,3.93,0,0,1-1.48.66c-.14,1.94-1.22,3.25-2.28,3.3a1.81,1.81,0,0,1-1.31-.55,1.81,1.81,0,0,0-1.35-.21c-1,.36-1.21,2.07-1.48,2s-.25-.46-.22-2.32l-1.39-.82-.9-1.58c.32,1.12.9,3.7-.34,5.62-.29.45-.63.8-.71.76s1.33-2.07.71-3.59a2.2,2.2,0,0,0-.79-1L33,27.19c.07-.23.18-.6.34-1,1.37-3.92,3.37-5.82,2.8-6.56-.12-.15-.4-.32-1.17-.21a4.15,4.15,0,0,1-1.78,1.67c-1.26.59-2.21.13-2.66.71-.68.89.76,3,.62,3.07s-.51-.52-1.76-2.49c0,0-1.27.74-2.66,1.4-.9.43-1.39.61-1.9.43a1.55,1.55,0,0,1-.51-.32l-2.85,2.58s1.69-.66,2.07-.23-.4,2.32-1.9,3c-.53.23-1.3.37-1.42.15s.37-.79,2.71-2.38L16,31.15H52.93l4.29-2.41A20.19,20.19,0,0,1,52.32,30.58ZM26.84,27.47a5.93,5.93,0,0,0-.42-1.18A11.14,11.14,0,0,1,25,28.7a11.69,11.69,0,0,1-1.76,1.84,17.2,17.2,0,0,0,1.57-2.74,17.59,17.59,0,0,0,.95-2.64,8.51,8.51,0,0,0,1.76-.52,8,8,0,0,0,2-1.23,2.92,2.92,0,0,1-2,2.5,4.94,4.94,0,0,1,.14,1.89A4.88,4.88,0,0,1,26.84,30,5.51,5.51,0,0,0,26.84,27.47Zm6.37,3a2.25,2.25,0,0,1-1-.85.9.9,0,0,0-.38-.52,1,1,0,0,0-1.1.19,5.26,5.26,0,0,1-1.66.85,5.45,5.45,0,0,1-1.33.24c.67,0,3.14-2,3.14-2a7.66,7.66,0,0,1,2.09.33,7.48,7.48,0,0,1,2.61,1.42A2.59,2.59,0,0,1,33.21,30.44ZM40.44,30a8.1,8.1,0,0,1-1.52.28l3.18-2.45a1.86,1.86,0,0,1-.8-1c-.3-1.16,1-2.27.85-2.45s-2.31,1.38-3.75,2.5l-3.19,2.45a5,5,0,0,1,1.14-2c1.41-1.47,2.87-1,4-2.5.4-.52.6-1.07,1.24-1.27a1.47,1.47,0,0,1,1.38.18c.53.5,0,1.31.57,1.8s.8.07,1.19.47.18,1,.47,1.09.67-.37,1.33-.76a4.18,4.18,0,0,1,1.86-.52l-6.94,5,1.85-2.27A8,8,0,0,1,40.44,30Z"/><path d="M63.51,28.65c-.92-.81-1.81-.62-3-1.38a5.34,5.34,0,0,1-1.76-1.89L58.54,27a9,9,0,0,1-2.33-3.08c-.45-1-.71-2.21-1.82-3a3.44,3.44,0,0,0-.94-.44L53.57,24a5.36,5.36,0,0,1,2.08,1,5.42,5.42,0,0,1,2,3.08l2.58,1.07-3.34,1.7,7.81-.13A3.85,3.85,0,0,0,63.51,28.65Z"/><path class="cls-1" d="M43.27,21.35l-.12,0c.06.08.13.15.19.22a5.1,5.1,0,0,0,.72-.23A2.12,2.12,0,0,1,43.27,21.35Z"/><path class="cls-2" d="M24.58,14.53v.71h1.67v0c0-.33,0-.59.07-.75Z"/><path class="cls-3" d="M38.56,12a.66.66,0,0,0,0-.23l0-.06h0a.4.4,0,0,0-.16.08,1,1,0,0,1,.14.09A.4.4,0,0,1,38.56,12Z"/><path class="cls-4" d="M23.47,13.49l.14.6,11.12,0-8.4.33c0,.16,0,.42-.07.75v0h3.58l-3.59.14c-.11,1.54-.18,4.17.64,4.47a4.12,4.12,0,0,0,.51,0,12.09,12.09,0,0,0,2.44-1.2c.29-.26.64-.57,1.11-.94a20.56,20.56,0,0,1,3.21-2.08,21.9,21.9,0,0,0,3.71,2.27,20.17,20.17,0,0,1,3.34,1.7l.13.09c-.12-.21-.18-.38-.2-.41l1.14-6.79.5,7.8.76.69.62-6.35.57,5.91.57-.31.07-.73c0-.44-.16-.85.12-1.16h0L46,12.79l.76,4.85c0,.1,0,.2,0,.3.68-.26.88-.75,1.74-1.87,1-1.38,1.73-2.28,2.26-2.14s.3.77,1.13,1.57c.51.49.65.33,1,.75.57.69.33,1.24.88,1.83a1.29,1.29,0,0,0,.18.16l.06-.35-.49-.5L54,14.11l.18,2.8c0-.48.07-1,.07-1.47A15.41,15.41,0,0,0,53.57,11l-8.78-.61,8.57-.05a15.49,15.49,0,0,0-3.63-5.8l-4.62-.31,4.26,0L49.15,4l-7.53-.52,6.87,0A15.41,15.41,0,0,0,32.59,1.3l7.17,0-8.43.58a15.48,15.48,0,0,0-5.42,5l8,0-8.43.58a16.34,16.34,0,0,0-.9,1.77l6.28,0-6.48.45A15.54,15.54,0,0,0,23.47,13.49ZM37,10.41a1,1,0,0,1,.65.18c.5.33.42.8.71.87s.42-.41,1-.6,1.13,0,1.16.12-.06.13-.11.16-.28,0-.49-.05a1.16,1.16,0,0,0-.55,0c-.47.19-.39.84-.85,1a.55.55,0,0,1-.36,0c-.57-.17-.43-1.17-1-1.42-.34-.15-.71,0-.73,0S36.73,10.43,37,10.41Zm-3.76-5.1a.39.39,0,0,1-.45.33.35.35,0,0,1-.22-.3l-1.85-1,2.09.83a.24.24,0,0,1,.29-.11.18.18,0,0,1,.1.14L35.35,5a.59.59,0,0,1-.08.11.6.6,0,0,1-.43.11A15.18,15.18,0,0,0,33.27,5.31Z"/><polygon class="cls-5" points="24.47 14.53 23.72 14.56 23.88 15.24 24.12 15.24 24.47 14.53"/><path class="cls-6" d="M25,19.55l.2.06,0,0c.52-.43.86-2.77,1-4.19l-1.66.07C24.58,16.87,24.65,19.1,25,19.55Z"/><polygon class="cls-7" points="23.94 15.49 23.96 15.56 23.99 15.49 23.94 15.49"/><text class="cls-8" transform="translate(0 40.73)">HIL<tspan class="cls-9" x="17.54" y="0">L</tspan><tspan x="22.9" y="0">Y </tspan><tspan class="cls-10" x="32.57" y="0">A</tspan><tspan x="40.19" y="0">GEN</tspan><tspan class="cls-11" x="62.87" y="0">C</tspan><tspan class="cls-12" x="70.19" y="0">Y</tspan></text></g></g></svg>