<?xml version="1.0" standalone="no"?>
<!DOCTYPE svg PUBLIC "-//W3C//DTD SVG 1.1//EN" "http://www.w3.org/Graphics/SVG/1.1/DTD/svg11.dtd">
<svg xmlns="http://www.w3.org/2000/svg" xmlns:xlink="http://www.w3.org/1999/xlink" viewBox="0 0 96.31 54.18" width="96.30999755859375" height="54.18000030517578"><defs><style>.cls-1{fill:url(#linear-gradient);}.cls-2{fill:url(#linear-gradient-2);}.cls-3{fill:url(#linear-gradient-3);}.cls-4{fill:url(#linear-gradient-4);}.cls-5{fill:url(#linear-gradient-5);}.cls-6{fill:url(#linear-gradient-6);}.cls-7{fill:url(#linear-gradient-7);}.cls-8{font-size:12.58px;fill:#fff;font-family:Montserrat-Bold, Montserrat;font-weight:700;}.cls-9{letter-spacing:-0.07em;}.cls-10{letter-spacing:-0.01em;}.cls-11{letter-spacing:-0.01em;}</style><linearGradient id="linear-gradient" x1="54.43" y1="26.88" x2="54.43" y2="26.61" gradientUnits="userSpaceOnUse"><stop offset="0.06" stop-color="#fbb040"/><stop offset="0.83" stop-color="#c13321"/></linearGradient><linearGradient id="linear-gradient-2" x1="31.77" y1="19.01" x2="31.77" y2="18.07" xlink:href="#linear-gradient"/><linearGradient id="linear-gradient-3" x1="47.97" y1="14.93" x2="47.98" y2="14.59" xlink:href="#linear-gradient"/><linearGradient id="linear-gradient-4" x1="48.46" y1="25.59" x2="48.57" y2="0.76" xlink:href="#linear-gradient"/><linearGradient id="linear-gradient-5" x1="30.08" y1="19.01" x2="30.08" y2="18.16" xlink:href="#linear-gradient"/><linearGradient id="linear-gradient-6" x1="31.69" y1="24.37" x2="31.71" y2="19.38" xlink:href="#linear-gradient"/><linearGradient id="linear-gradient-7" x1="29.92" y1="19.42" x2="29.92" y2="19.34" xlink:href="#linear-gradient"/></defs><g id="Layer_2" data-name="Layer 2"><g id="Layer_1-2" data-name="Layer 1"><rect x="0.38" y="38.4" width="95.54" height="0.57"/><path d="M32.67,19.22c.08-.67.11-1.13.11-1.13S32.73,18.54,32.67,19.22Z"/><path d="M83.55,37.81c-.09-.2-.2-.41-.32-.63a27.69,27.69,0,0,0-1.12-3.7c-.55-1.17-1.34-15.63-1.34-15.63s-1.17,13.91-2.35,14-1.26-10-1.26-10L76.61,30,75.2,28.77,73.86,16.91l-1.54,12-.12-.19L71,23.12V26.8c-.09-.13-.17-.26-.24-.38a14.65,14.65,0,0,0-1.35-2l-.14-.24-.47-8.72L67.58,22.8l-.32-4.95-.55,4.09c.51.5,1,1,1.39,1.48A2.76,2.76,0,0,1,67,22.8c-.69-.73-.39-1.42-1.1-2.28-.45-.53-.62-.33-1.26-.94-1-1-.88-1.83-1.41-2s-1.52,1-2.83,2.67c-1.07,1.4-1.32,2-2.17,2.34,0-.12,0-.25.05-.38l-.94-6.05-.71,6.91h0c-.35.39-.2.89-.14,1.44l-.1.91-.7.4L55,18.48l-.78,7.94-.95-.87-.63-9.74L51.24,24.3s.1.23.24.51l-.16-.12a25.43,25.43,0,0,0-4.16-2.12,28.52,28.52,0,0,1-4.64-2.83,24.58,24.58,0,0,0-4,2.59c-.59.47-1,.85-1.39,1.17a15,15,0,0,1-3,1.51c-.2,0-.42,0-.65,0-1.06-.39-.92-3.95-.77-5.82-.19,1.73-.62,4.9-1.3,5.47l-.05,0-.24-.08c-.62-.83-.5-6.55-.5-6.55l-.78,1.57L29,16.28S27.6,28.07,26.89,28.07,26,22.25,26,22.25L26,28.62h-.71c-.26,0-.33,0-.32,0-.41-2.42-1.41-11.11-1.41-11.11s-.47,13.59-1.8,13.82-1-12.88-1-12.88l-2,15L17.07,17.62,14.58,36.7l-1.2,1h4.09a39.08,39.08,0,0,1,8.21-5.59,14,14,0,0,0,5.61-4.63c.57-.31,1.34-.72,2.25-1.25a5.58,5.58,0,0,0,3.7-.05c1-.41,1.46-1,2.93-2.19A22.58,22.58,0,0,1,43.9,21.6a25.24,25.24,0,0,0,4.32,2.63,23.51,23.51,0,0,1,3.87,2,12.58,12.58,0,0,1,2.49,2.27c1.56-.38,2.08-1,2.27-1.46a2.74,2.74,0,0,0,0-1.39,5.46,5.46,0,0,0,.8-1.15,2.88,2.88,0,0,0,.85-.17c.82-.31,1-.87,2-2.2,1.22-1.59,2-2.64,2.64-2.49s.35.91,1.31,1.83c.6.57.76.39,1.18.88.66.8.37,1.44,1,2.12.37.4.67.4,1.17.66,1,.52,1.42,1.32,2.27,2.71.55.9,1.36,2.19,2.49,3.81a3.36,3.36,0,0,1,.54-.9,11,11,0,0,0,2.64,1.18,14.1,14.1,0,0,0,1.5,1.47c1.21,1,1.51.91,2.49,1.83a10.27,10.27,0,0,1,2,2.59h1.52l.11.23,0-.23ZM25.16,29.24c0,.1-.08-.13-.16-.59A.58.58,0,0,1,25.16,29.24ZM54,27.12l-.24-.27.16,0a2.51,2.51,0,0,0,1-.05A6.44,6.44,0,0,1,54,27.12Z"/><path d="M65.31,38.18c-.69.16-1.37.29-2,.39l4.43-1.81-3.38.15A6.61,6.61,0,0,0,67,36.18,6.85,6.85,0,0,0,68.6,35c-.87.28-1.76.55-2.69.8-2.19.61-4.29,1.06-6.25,1.4A50.36,50.36,0,0,0,66,34.82c.81-.36,1.59-.74,2.33-1.12,0,0-.47.24-2.53-.55-.3-.11-.42-.19-.41-.24s2.44.08,4.76.4a6.26,6.26,0,0,0-3-1c-1.41-.09-2.2.4-2.67,0s-.53-1.2.58-3.77L63.77,30l1.6-3.44a16.45,16.45,0,0,1-2.49,3.07,8.28,8.28,0,0,1-2.31,1.76c-.14-.15,2.46-2.06,4-5.53a13.42,13.42,0,0,0,.81-2.54L63.12,25.1c-1.43,1.24-1.81,1.51-1.84,1.47a9.13,9.13,0,0,0,2.08-2.88,6.17,6.17,0,0,0,.17-3.5,9.66,9.66,0,0,0-2.31,2.14,7.87,7.87,0,0,1-1.48,1.77,4.68,4.68,0,0,1-1.84.82c-.18,2.42-1.52,4.06-2.85,4.13a2.31,2.31,0,0,1-1.64-.69,2.22,2.22,0,0,0-1.68-.26c-1.29.45-1.51,2.58-1.84,2.54-.17,0-.33-.58-.28-2.91l-1.74-1-1.13-2c.41,1.39,1.13,4.61-.41,7-.36.56-.8,1-.89.94s1.66-2.58.89-4.48a3,3,0,0,0-1-1.2l-4.12,6.92c.09-.29.22-.74.42-1.3,1.71-4.89,4.21-7.26,3.5-8.19-.15-.19-.5-.4-1.46-.25a5.31,5.31,0,0,1-2.22,2.08c-1.58.74-2.76.15-3.32.88-.86,1.12.94,3.73.77,3.83s-.64-.64-2.2-3.1c0,0-1.58.92-3.32,1.75-1.13.53-1.74.75-2.37.53a2,2,0,0,1-.64-.4L26.82,33s2.11-.82,2.59-.29-.5,2.9-2.37,3.71c-.66.29-1.63.47-1.77.2s.46-1,3.37-3Q24.32,36.26,20,38.88H66.07l5.36-3A25.8,25.8,0,0,1,65.31,38.18Zm-31.8-3.89A6.69,6.69,0,0,0,33,32.82a13.44,13.44,0,0,1-1.72,3,13.28,13.28,0,0,1-2.19,2.3,22.07,22.07,0,0,0,2-3.42,20.87,20.87,0,0,0,1.18-3.3,9.67,9.67,0,0,0,4.69-2.18A3.66,3.66,0,0,1,36,31.29a3.76,3.76,0,0,1-1.6,1.06,6.14,6.14,0,0,1,.18,2.35,6.21,6.21,0,0,1-1.07,2.77A7,7,0,0,0,33.51,34.29Zm8,3.71a2.88,2.88,0,0,1-1.31-1.06,1,1,0,0,0-.47-.65,1.17,1.17,0,0,0-1.36.24,7.09,7.09,0,0,1-2.08,1.06,6.51,6.51,0,0,1-1.66.29c.83,0,3.91-2.53,3.91-2.53a9.39,9.39,0,0,1,5.88,2.18A3.24,3.24,0,0,1,41.46,38Zm9-.53a9.41,9.41,0,0,1-1.9.35l4-3.06a2.31,2.31,0,0,1-1-1.29c-.37-1.45,1.29-2.83,1.07-3.07s-2.89,1.73-4.69,3.12S44.77,36,44,36.59a6.18,6.18,0,0,1,1.43-2.54c1.76-1.84,3.57-1.19,5-3.12.5-.65.75-1.33,1.54-1.59a1.82,1.82,0,0,1,1.72.24c.67.62,0,1.63.72,2.24.48.43,1,.09,1.48.58s.23,1.2.59,1.36.83-.46,1.66-.94a5.06,5.06,0,0,1,2.32-.65l-8.66,6.18,2.31-2.82A9.91,9.91,0,0,1,50.48,37.47Z"/><path d="M79.28,35.76C78.13,34.76,77,35,75.51,34a6.64,6.64,0,0,1-2.2-2.35l-.23,2a11.18,11.18,0,0,1-2.91-3.85c-.57-1.28-.89-2.75-2.28-3.69a4.14,4.14,0,0,0-1.18-.55c.06,1.47.11,2.93.16,4.4a6.43,6.43,0,0,1,2.59,1.18A6.78,6.78,0,0,1,71.9,35l3.22,1.33L71,38.43l9.74-.15A4.79,4.79,0,0,0,79.28,35.76Z"/><path class="cls-1" d="M54,26.65l-.16,0,.24.27a8.87,8.87,0,0,0,.9-.28A2.72,2.72,0,0,1,54,26.65Z"/><path class="cls-2" d="M30.68,18.13V19h2.09V19c0-.41.06-.74.09-.93Z"/><path class="cls-3" d="M48.13,14.94a.84.84,0,0,0-.05-.29.15.15,0,0,0,0-.07h0a.51.51,0,0,0-.21.1.51.51,0,0,1,.18.11A.62.62,0,0,1,48.13,14.94Z"/><path class="cls-4" d="M29.3,16.84l.18.75,13.87.05-10.48.41c0,.19,0,.52-.09.93V19h4.47l-4.48.18c-.14,1.91-.23,5.2.79,5.58a6.28,6.28,0,0,0,.64,0,14.84,14.84,0,0,0,3-1.5c.37-.33.8-.71,1.39-1.17a26,26,0,0,1,4-2.6,27.81,27.81,0,0,0,4.63,2.83,24.65,24.65,0,0,1,4.16,2.12l.17.12a3.22,3.22,0,0,1-.24-.51l1.41-8.48.63,9.74.94.86.79-7.93.7,7.38.71-.39.09-.91c-.06-.56-.2-1.06.15-1.45h0l.7-6.91,1,6c0,.13,0,.25-.05.38.85-.34,1.09-.94,2.17-2.35,1.31-1.71,2.16-2.83,2.82-2.67s.38,1,1.42,2c.63.6.81.41,1.25.94.72.85.41,1.54,1.1,2.28a2.05,2.05,0,0,0,.23.2c0-.15,0-.29.08-.43l-.62-.64.55-4.08.22,3.49c.06-.61.09-1.22.09-1.84a19.06,19.06,0,0,0-.81-5.53l-11-.76,10.69-.06a19.13,19.13,0,0,0-4.52-7.24l-5.77-.39,5.32,0L61.35,5,52,4.34l8.58,0A19.26,19.26,0,0,0,40.68,1.62l9,0L39.1,2.4a19.44,19.44,0,0,0-6.76,6.24l10,.06-10.51.73a19.13,19.13,0,0,0-1.13,2.21l7.84,0-8.09.55A19.18,19.18,0,0,0,29.3,16.84ZM46.22,13a1.36,1.36,0,0,1,.81.23c.62.41.53,1,.89,1.09s.53-.52,1.29-.76,1.4,0,1.44.16-.07.16-.14.2-.34,0-.6-.07a1.32,1.32,0,0,0-.69.06c-.58.23-.49,1-1.06,1.23a.67.67,0,0,1-.45,0c-.72-.21-.53-1.46-1.27-1.77-.43-.19-.89.06-.91,0S45.84,13,46.22,13ZM41.53,6.62A.48.48,0,0,1,41,7a.42.42,0,0,1-.27-.37L38.39,5.42l2.6,1a.28.28,0,0,1,.36-.14.22.22,0,0,1,.13.17l2.64-.22a.28.28,0,0,1-.1.14.68.68,0,0,1-.53.13C43.16,6.53,42.47,6.56,41.53,6.62Z"/><polygon class="cls-5" points="30.55 18.14 29.61 18.18 29.81 19.03 30.1 19.03 30.55 18.14"/><path class="cls-6" d="M31.18,24.41l.25.07s0,0,0,0c.65-.54,1.08-3.45,1.28-5.22l-2.07.08C30.69,21.06,30.77,23.84,31.18,24.41Z"/><polygon class="cls-7" points="29.88 19.34 29.9 19.43 29.95 19.34 29.88 19.34"/><text class="cls-8" transform="translate(0 50.84)">HIL<tspan class="cls-9" x="21.89" y="0">L</tspan><tspan x="28.59" y="0">Y </tspan><tspan class="cls-10" x="40.65" y="0">A</tspan><tspan x="50.17" y="0">GEN</tspan><tspan class="cls-11" x="78.48" y="0">C</tspan><tspan x="87.61" y="0">Y</tspan></text></g></g></svg>